<svg xmlns="http://www.w3.org/2000/svg" width="17" height="34"><path fill="none" stroke="#fff" stroke-miterlimit="20" stroke-width="2" d="M12.786 19.392V5.262C12.786 2.909 10.867 1 8.5 1 6.133 1 4.214 2.908 4.214 5.263v14.13A7.436 7.436 0 001 25.508c0 4.12 3.357 7.46 7.5 7.46s7.5-3.34 7.5-7.46a7.436 7.436 0 00-3.214-6.117z"/><path fill="none" stroke="#fff" stroke-miterlimit="20" stroke-width="2" d="M11.429 25.69c0 1.49-1.216 2.7-2.715 2.7A2.707 2.707 0 016 25.69c0-1.491 1.215-2.7 2.714-2.7a2.707 2.707 0 012.715 2.7z"/></svg>