<svg xmlns="http://www.w3.org/2000/svg" width="34" height="30"><path fill="none" stroke="#fff" stroke-miterlimit="20" stroke-width="2" d="M7.264 25.312a3.138 3.138 0 00-3.132-3.142A3.137 3.137 0 001 25.312a3.137 3.137 0 003.132 3.142 3.138 3.138 0 003.132-3.142zm25.19-21.171A3.138 3.138 0 0029.322 1a3.137 3.137 0 00-3.132 3.141 3.137 3.137 0 003.132 3.143 3.138 3.138 0 003.132-3.143zm-12.66 10.52a3.138 3.138 0 00-3.132-3.141 3.137 3.137 0 00-3.132 3.141 3.137 3.137 0 003.132 3.142 3.138 3.138 0 003.132-3.142z"/><path fill="none" stroke="#fff" stroke-linecap="round" stroke-miterlimit="20" stroke-width="2" d="M4.13 1.05v20.988M16.66 17.8v10.471m0-27.221v10.472M29.19 7.28v20.988"/></svg>